<!DOCTYPE svg PUBLIC "-//W3C//DTD SVG 20010904//EN" "http://www.w3.org/TR/2001/REC-SVG-20010904/DTD/svg10.dtd">
<svg version="1.0" xmlns="http://www.w3.org/2000/svg" width="199px" height="208px" viewBox="0 0 3980 4160" preserveAspectRatio="xMidYMid meet">
<g id="layer101" fill="#0c0e13" stroke="none">
<path d="M2430 4093 c-45 -93 -102 -238 -140 -358 -17 -55 -33 -106 -35 -112 -4 -10 -238 -13 -1130 -13 l-1125 0 0 -1540 0 -1540 1068 0 1068 0 80 -117 c59 -89 275 -384 299 -411 4 -4 155 118 155 125 0 2 -42 52 -93 112 -50 59 -121 148 -155 197 l-64 89 811 3 811 2 0 1540 0 1540 -755 0 c-644 0 -756 2 -761 14 -7 18 74 261 120 362 20 42 36 81 36 85 0 7 -70 47 -151 87 -3 1 -20 -28 -39 -65z"/>
</g>
<g id="layer102" fill="#4c65ca" stroke="none">
<path d="M0 2070 l0 -1540 1065 0 c586 0 1065 2 1065 5 0 2 -32 60 -71 127 -242 419 -407 860 -479 1273 -20 119 -50 370 -50 426 l0 29 346 0 346 0 -6 33 c-20 111 -46 318 -52 414 -11 200 28 560 82 751 l6 22 -1126 0 -1126 0 0 -1540z"/>
</g>
<g id="layer103" fill="#89a0d4" stroke="none">
<path d="M2450 3595 c-24 -63 -100 -528 -88 -540 2 -2 60 -9 129 -15 162 -14 375 -58 529 -109 118 -40 320 -132 339 -155 7 -8 -3 -34 -31 -82 -23 -38 -43 -71 -44 -73 -2 -2 -52 19 -111 46 -60 28 -142 63 -183 78 -168 60 -481 120 -587 113 l-47 -3 2 -60 c4 -105 33 -276 69 -415 19 -74 36 -144 37 -155 1 -20 -6 -20 -366 -23 -331 -2 -368 -4 -368 -18 0 -38 34 -230 65 -364 90 -390 240 -767 433 -1088 44 -73 92 -148 106 -167 l27 -35 810 0 809 0 0 1540 0 1540 -761 2 c-759 3 -761 3 -769 -17z m428 -2312 l-3 -238 -90 0 -90 0 -3 238 -2 237 95 0 95 0 -2 -237z"/>
</g>
<g id="layer104" fill="#151995" stroke="none">
<path d="M1620 3049 c-310 -26 -597 -100 -899 -231 -53 -23 -98 -43 -100 -45 -4 -3 69 -173 75 -173 1 0 65 25 141 56 178 73 280 107 412 139 136 33 129 32 257 51 114 17 639 35 652 22 4 -4 7 38 7 93 l0 99 -225 -1 c-124 -1 -268 -5 -320 -10z"/>
<path d="M997 1514 c-10 -10 -8 -446 1 -462 6 -9 33 -12 98 -10 l89 3 0 235 0 235 -90 3 c-50 1 -94 0 -98 -4z"/>
</g>


</svg>